<svg xmlns="http://www.w3.org/2000/svg" width="390" height="844" viewBox="0 0 390 844">
  <defs>
    <linearGradient id="bg" x1="0" y1="0" x2="1" y2="1">
      <stop offset="0" stop-color="#172554"/>
      <stop offset="0.55" stop-color="#0f172a"/>
      <stop offset="1" stop-color="#111827"/>
    </linearGradient>
    <filter id="shadow" x="-20%" y="-20%" width="140%" height="140%"><feDropShadow dx="0" dy="8" stdDeviation="10" flood-color="#020617" flood-opacity="0.45"/></filter>
  </defs>
  <rect width="390" height="844" fill="url(#bg)"/>
  <g opacity="0.32">
    <rect x="23" y="105" width="344" height="358" rx="22" fill="#0b1120" stroke="#38bdf8" stroke-opacity="0.2"/>
    <g stroke="#94a3b8" stroke-opacity="0.16" fill="#0f172a"><rect x="48" y="138" width="76" height="68" rx="12"/><rect x="148" y="138" width="76" height="68" rx="12"/><rect x="248" y="138" width="76" height="68" rx="12"/><rect x="48" y="230" width="76" height="68" rx="12"/><rect x="148" y="230" width="76" height="68" rx="12"/><rect x="248" y="230" width="76" height="68" rx="12"/><rect x="48" y="322" width="76" height="68" rx="12"/><rect x="148" y="322" width="76" height="68" rx="12"/><rect x="248" y="322" width="76" height="68" rx="12"/></g>
    <rect x="18" y="636" width="354" height="134" rx="18" fill="#020617" opacity="0.78"/>
  </g>
  <rect width="390" height="844" fill="#000" opacity="0.58"/>
  <rect x="27.3" y="223.7" width="335.4" height="261.6" rx="18" fill="#0f172a" opacity="0.97" stroke="#e2e8f0" stroke-width="4" stroke-opacity="0.85" filter="url(#shadow)"/>
  <rect x="117.9" y="265.5" width="154.3" height="2" fill="#e2e8f0" opacity="0.58"/>
  <text x="195.0" y="296.7" text-anchor="middle" font-family="Rajdhani, Orbitron, 'Segoe UI', Arial, sans-serif" font-size="14" font-weight="700" letter-spacing="2.2" fill="#cbd5e1">BATTLE COMPLETE</text>
  <text x="195.0" y="360.7" text-anchor="middle" font-family="Rajdhani, Orbitron, 'Segoe UI', Arial, sans-serif" font-size="50" font-weight="700" letter-spacing="1.6" fill="#fde68a">DRAW</text>
  <text x="195.0" y="393.2" text-anchor="middle" font-family="Arial, sans-serif" font-size="17" fill="#e2e8f0">Production ordered a rematch.</text>
  <g>
    <ellipse cx="122.6" cy="450.7" rx="47.1" ry="5.5" fill="#020617" opacity="0.28"/>
    <image href="../../public/assets/ui/button-secondary.png" x="57.2" y="419.7" width="130.8" height="50.0" preserveAspectRatio="none"/>
    <text x="122.6" y="450.7" text-anchor="middle" font-family="Rajdhani, Orbitron, 'Segoe UI', Arial, sans-serif" font-size="16" font-weight="700" letter-spacing="1.7" fill="#f5f1e6">EXIT</text>
  </g>
  <g>
    <ellipse cx="267.4" cy="450.7" rx="47.1" ry="5.5" fill="#020617" opacity="0.28"/>
    <image href="../../public/assets/ui/button-secondary.png" x="202.0" y="419.7" width="130.8" height="50.0" preserveAspectRatio="none"/>
    <text x="267.4" y="450.7" text-anchor="middle" font-family="Rajdhani, Orbitron, 'Segoe UI', Arial, sans-serif" font-size="16" font-weight="700" letter-spacing="1.7" fill="#f5f1e6">RETRY</text>
  </g>
</svg>
